# xmcd
#
# Track frame offsets:
#	150
#	13947
#	23906
#	34619
#	45071
#	57801
#	71842
#	86837
#	92916
#	105486
#	119230
#	134118
#	156053
#	170241
#	183198
#	193673
#	206114
#	217919
#	231953
#	247992
#	262340
#	273846
#	286613
#	301217
#
# Disc length: 4283 seconds
#
# Revision: 0
# Processed by: cddbd v1.5.1PL2 Copyright (c) Steve Scherf et al.
# Submitted via: dBpowerAMP V4.0
#
DISCID=5f10b918
DTITLE=Various Artist - Blue Moon
DYEAR=1998
DGENRE=Blues
TTITLE0=Peggy Lee - Do I Love You?
TTITLE1=Dinah Shore  - Who?
TTITLE2=Tony Bennett  - Anything Goes
TTITLE3=Chet Baker - My Funny Valentine
TTITLE4=Julie London - Cry Me a River
TTITLE5=Nancy Wilson - All Night Long
TTITLE6=Lou Rawls - Georgia on My Mind
TTITLE7=June Christy - I Whant to Be Happy
TTITLE8=Kay Starr - It Had To Be You
TTITLE9=Mel Tormé - I Like To Recognize The Tune
TTITLE10=Billie Holiday - Trav'lin' Light
TTITLE11=Sarah Vaughan - You Go To My Head
TTITLE12=Dick Haymes - It May as Well Be Spring
TTITLE13=Peggy Lee - As Time Goes By
TTITLE14=Dinah Washington - That Old Feeling
TTITLE15=Nat King Cole - Let There Be Love
TTITLE16=Louis Armstrong - Do Nothin' Till You HEar From Me
TTITLE17=Billy Eckstine - Blues in the Night
TTITLE18=Annie Ross - I Feel Pretty
TTITLE19=Mel Tormé - Blue Moon
TTITLE20=Bobby Darin - Blue Skies
TTITLE21=Lena Horne - Singin' In The Rain
TTITLE22=Bing Crosby - Louis Armstrong - Lazy River
TTITLE23=Judy Garland - Over the Rainbw
EXTD=its a various artis compilation...\nEdited by .. wel it got 3 names...\nCapitol and EMI - Valentim de Carvalho (it's the portuguese distributer)
EXTT0=
EXTT1=
EXTT2=
EXTT3=
EXTT4=
EXTT5=
EXTT6=
EXTT7=
EXTT8=
EXTT9=
EXTT10=
EXTT11=
EXTT12=
EXTT13=
EXTT14=
EXTT15=
EXTT16=
EXTT17=
EXTT18=
EXTT19=
EXTT20=
EXTT21=
EXTT22=
EXTT23=
PLAYORDER=
